<svg xmlns="http://www.w3.org/2000/svg" viewBox="0 0 1800 1000" role="img" aria-labelledby="title desc">
  <title id="title">Dark fantasy forest campfire placeholder</title>
  <desc id="desc">An abstract cinematic forest with distant trees, warm firelight, and golden motes for The Age of Seals hero artwork.</desc>
  <defs>
    <radialGradient id="fire" cx="50%" cy="67%" r="38%">
      <stop offset="0" stop-color="#f2c16c" stop-opacity="0.8"/>
      <stop offset="0.18" stop-color="#c8752a" stop-opacity="0.32"/>
      <stop offset="0.55" stop-color="#132326" stop-opacity="0.18"/>
      <stop offset="1" stop-color="#050403" stop-opacity="0"/>
    </radialGradient>
    <linearGradient id="sky" x1="0" y1="0" x2="0" y2="1">
      <stop offset="0" stop-color="#1c3034"/>
      <stop offset="0.48" stop-color="#0f191b"/>
      <stop offset="1" stop-color="#050403"/>
    </linearGradient>
    <filter id="blur"><feGaussianBlur stdDeviation="2.2"/></filter>
  </defs>
  <rect width="1800" height="1000" fill="url(#sky)"/>
  <rect width="1800" height="1000" fill="url(#fire)"/>
  <g opacity="0.55" stroke="#050403" stroke-width="18" stroke-linecap="round">
    <path d="M88 105 C70 300 115 500 95 1000"/><path d="M240 30 C210 250 260 480 230 1000"/>
    <path d="M415 90 C390 310 430 590 405 1000"/><path d="M1525 20 C1505 275 1570 520 1530 1000"/>
    <path d="M1690 70 C1660 320 1718 610 1680 1000"/><path d="M1260 130 C1240 360 1275 620 1250 1000"/>
  </g>
  <g opacity="0.38" stroke="#233a3d" stroke-width="9" stroke-linecap="round">
    <path d="M585 100 C555 320 610 620 585 1000"/><path d="M730 65 C700 270 760 560 728 1000"/>
    <path d="M1040 88 C1010 300 1060 620 1045 1000"/><path d="M1360 120 C1330 310 1375 610 1348 1000"/>
  </g>
  <g opacity="0.5" stroke="#d79f55" stroke-width="2" stroke-linecap="round" filter="url(#blur)">
    <path d="M420 190 C560 145 610 150 730 105 C830 70 920 95 1030 58 C1160 18 1270 40 1410 24" fill="none"/>
    <path d="M360 260 C500 220 620 250 755 198 C900 142 1055 168 1215 115 C1330 78 1470 86 1600 55" fill="none"/>
  </g>
  <g fill="#e9bd6f" opacity="0.68">
    <circle cx="515" cy="190" r="3"/><circle cx="570" cy="157" r="2"/><circle cx="650" cy="177" r="2.4"/><circle cx="760" cy="125" r="3"/>
    <circle cx="835" cy="88" r="2"/><circle cx="930" cy="101" r="3"/><circle cx="1052" cy="71" r="2.4"/><circle cx="1134" cy="47" r="2"/>
    <circle cx="1236" cy="61" r="3"/><circle cx="1358" cy="38" r="2.4"/><circle cx="1468" cy="72" r="2"/><circle cx="1530" cy="51" r="3"/>
    <circle cx="900" cy="675" r="20"/><circle cx="875" cy="700" r="10"/><circle cx="930" cy="704" r="12"/>
  </g>
  <g opacity="0.38" fill="#030302">
    <ellipse cx="760" cy="710" rx="70" ry="120"/><ellipse cx="1020" cy="700" rx="76" ry="125"/><ellipse cx="895" cy="645" rx="55" ry="145"/>
  </g>
  <path d="M0 790 C230 735 355 780 525 738 C710 692 910 738 1095 700 C1320 655 1510 710 1800 650 L1800 1000 L0 1000 Z" fill="#040403" opacity="0.7"/>
</svg>
